<svg width="26" height="25" viewBox="0 0 26 25" fill="none" xmlns="http://www.w3.org/2000/svg">
<path d="M0.959961 12.48C0.959961 5.58749 6.54745 0 13.44 0C20.3325 0 25.92 5.58749 25.92 12.48C25.92 19.3725 20.3325 24.96 13.44 24.96C6.54745 24.96 0.959961 19.3725 0.959961 12.48Z" fill="#4C6C91"/>
<path d="M14.0928 16.5757C14.0928 16.5757 14.333 16.5495 14.4561 16.4197C14.5687 16.3008 14.5648 16.0765 14.5648 16.0765C14.5648 16.0765 14.5498 15.029 15.0453 14.8744C15.5336 14.7222 16.1606 15.8873 16.8261 16.3354C17.3287 16.6741 17.7102 16.5999 17.7102 16.5999L19.4884 16.5757C19.4884 16.5757 20.4181 16.5194 19.9773 15.8017C19.9409 15.7429 19.7202 15.2706 18.6556 14.3004C17.5403 13.2849 17.6901 13.4491 19.0326 11.6922C19.8504 10.6224 20.1772 9.9692 20.075 9.68991C19.978 9.42276 19.3764 9.4937 19.3764 9.4937L17.3749 9.50585C17.3749 9.50585 17.2265 9.48603 17.1164 9.55058C17.009 9.61386 16.9393 9.76149 16.9393 9.76149C16.9393 9.76149 16.6229 10.5891 16.2004 11.2934C15.309 12.7787 14.9529 12.8573 14.807 12.7653C14.4678 12.5499 14.5524 11.9012 14.5524 11.4404C14.5524 10.0005 14.7751 9.40039 14.1195 9.24509C13.902 9.19332 13.7418 9.15945 13.1852 9.1537C12.4709 9.14667 11.8667 9.15626 11.5242 9.32051C11.2963 9.42979 11.1205 9.67393 11.228 9.68799C11.3601 9.70525 11.6597 9.76724 11.8185 9.97943C12.0236 10.2536 12.0164 10.8684 12.0164 10.8684C12.0164 10.8684 12.1343 12.5633 11.741 12.7736C11.4715 12.918 11.1017 12.6234 10.3067 11.2755C9.89975 10.5853 9.59244 9.82221 9.59244 9.82221C9.59244 9.82221 9.53319 9.67968 9.42706 9.60299C9.2988 9.51032 9.11975 9.48156 9.11975 9.48156L7.21791 9.4937C7.21791 9.4937 6.93208 9.50137 6.82726 9.62344C6.73415 9.73145 6.8201 9.95578 6.8201 9.95578C6.8201 9.95578 8.30914 13.3756 9.99546 15.0993C11.5418 16.6792 13.2971 16.5757 13.2971 16.5757H14.0928Z" fill="white"/>
</svg>
